<svg width="58" height="22" viewBox="0 0 58 22" fill="none" xmlns="http://www.w3.org/2000/svg">
<g clip-path="url(#clip0_590_161)">
<path d="M0.882267 -0.0171089L0.882458 -0.0171757C1.00657 -0.0602341 1.15335 -0.077549 1.85189 -0.085535C2.55743 -0.0936012 3.8399 -0.0914488 6.25212 -0.0871525L11.3654 -0.0785589L11.3902 -0.0785179L11.412 -0.0669384L11.6312 0.049077L11.6312 0.049099C12.0882 0.291319 12.3529 0.657571 12.4309 1.16646L12.4309 1.16687C12.4395 1.22451 12.446 1.34952 12.4513 1.5348C12.4566 1.72285 12.4608 1.97938 12.4637 2.30486C12.4696 2.95592 12.4707 3.88453 12.4664 5.0964C12.46 6.84025 12.4557 7.74731 12.4433 8.2289C12.4371 8.46851 12.4289 8.60785 12.4164 8.69361C12.4101 8.73686 12.4021 8.77159 12.3903 8.8008C12.3776 8.83225 12.3622 8.85328 12.3469 8.87032C12.2767 8.95015 12.1694 8.98674 12.0705 8.9932C11.9707 8.99972 11.8602 8.97708 11.7749 8.91533L11.7749 8.91537L11.7722 8.91327C11.7543 8.89931 11.7338 8.87971 11.7176 8.84601C11.7038 8.81706 11.6954 8.7823 11.689 8.74083C11.6763 8.65784 11.6678 8.51773 11.6611 8.27093C11.6477 7.77435 11.6412 6.8233 11.6305 4.97637C11.6197 3.26362 11.6122 2.31296 11.5993 1.77589C11.5929 1.50688 11.5852 1.34437 11.5753 1.24264C11.5653 1.13822 11.5538 1.11075 11.5485 1.10126L11.5479 1.1001C11.4679 0.951584 11.3364 0.833602 11.2133 0.786698C11.2115 0.78639 11.2074 0.785718 11.2003 0.784882C11.1859 0.783199 11.165 0.78143 11.1367 0.779655C11.0805 0.776122 10.9998 0.772837 10.8933 0.769826C10.6806 0.763812 10.3686 0.758984 9.95227 0.755225C9.1197 0.74771 7.87185 0.744488 6.17031 0.744488H1.24392L1.07705 0.827916C1.07687 0.828009 1.07669 0.828101 1.07651 0.828194C1.01219 0.861376 0.967086 0.893152 0.931036 0.929626C0.894997 0.966089 0.864285 1.01101 0.833342 1.07483L0.833383 1.07485L0.831983 1.07753L0.744532 1.24483V6.17027C0.744532 7.87181 0.747755 9.11966 0.75527 9.95223C0.759029 10.3686 0.763856 10.6806 0.769871 10.8933C0.772881 10.9997 0.776167 11.0805 0.7797 11.1367C0.781475 11.1649 0.783244 11.1858 0.784926 11.2002C0.785762 11.2074 0.786433 11.2114 0.786741 11.2133C0.833645 11.3364 0.951628 11.4679 1.10015 11.5478L1.10015 11.5478L1.1013 11.5485C1.1108 11.5538 1.13826 11.5652 1.24268 11.5753C1.34442 11.5851 1.50693 11.5929 1.77593 11.5993C2.31301 11.6122 3.26367 11.6197 4.97641 11.6304C6.82334 11.6412 7.7744 11.6476 8.27097 11.6611C8.51777 11.6678 8.65789 11.6763 8.74088 11.689C8.78234 11.6953 8.8171 11.7037 8.84605 11.7176C8.87976 11.7337 8.89936 11.7542 8.91331 11.7722L8.91336 11.7721L8.91537 11.7749C8.97713 11.8602 8.99977 11.9707 8.99325 12.0705C8.98679 12.1692 8.95033 12.2763 8.87078 12.3465C8.85367 12.3619 8.83255 12.3775 8.80084 12.3903C8.77163 12.4021 8.7369 12.4101 8.69365 12.4164C8.6079 12.4288 8.46855 12.4371 8.22894 12.4432C7.74735 12.4556 6.84029 12.4599 5.09646 12.4664L5.09644 12.4664C3.23476 12.4728 2.22034 12.4728 1.6329 12.4513C1.04645 12.4297 0.869174 12.3866 0.693501 12.2964C0.453295 12.1739 0.190467 11.8999 0.0490858 11.6268L-0.0665052 11.4127L-0.0784507 11.3906L-0.0785144 11.3654L-0.091405 6.27794L-0.0914051 6.27792C-0.0918366 6.09092 -0.0922635 5.91045 -0.0926756 5.73626C-0.0984135 3.31057 -0.101269 2.1033 -0.0735871 1.46409C-0.0588159 1.12301 -0.0351487 0.933102 0.00565383 0.803406C0.0415584 0.689278 0.0915417 0.622079 0.143543 0.552167C0.153118 0.539293 0.162762 0.526328 0.172399 0.51296L0.172449 0.512892C0.351905 0.264414 0.592066 0.0842304 0.882267 -0.0171089Z" fill="#191919" stroke="#191919" stroke-width="0.2"/>
<path d="M6.01895 2.68334L6.01896 2.68338C5.96709 2.6979 5.92542 2.73137 5.89371 2.7677C5.86146 2.80464 5.8346 2.85008 5.81311 2.89896C5.77018 2.99667 5.74397 3.11895 5.74397 3.24374V3.3371H4.40452H2.96077H2.91814L2.88863 3.36785L2.7867 3.47402C2.70408 3.5546 2.65452 3.65278 2.65452 3.75936C2.65452 3.86595 2.70408 3.96413 2.7867 4.04471L2.88863 4.15088L2.91814 4.18163H2.96077H5.3928C6.06069 4.18163 6.66724 4.18485 7.10669 4.18968C7.32648 4.1921 7.50414 4.19491 7.62667 4.19791C7.64735 4.19842 7.66639 4.19893 7.68373 4.19945C7.6813 4.20611 7.67878 4.213 7.67617 4.22012C7.64528 4.30425 7.60257 4.41745 7.5555 4.53942C7.24496 5.32629 6.77273 6.16812 6.28978 6.77815L6.28918 6.77892L6.28918 6.77892L6.17483 6.92631L6.06048 6.77892L6.06026 6.77864C5.7725 6.41048 5.432 5.8745 5.15933 5.35049C5.02156 5.08344 4.91833 4.90828 4.81572 4.81454C4.76074 4.76432 4.70045 4.73197 4.63077 4.72425C4.56346 4.7168 4.49953 4.7338 4.43977 4.75819L4.43949 4.7583C4.38795 4.77952 4.33965 4.81503 4.30051 4.85418C4.26136 4.89333 4.22585 4.94163 4.20463 4.99316L4.20448 4.99351C4.19138 5.02569 4.1791 5.06089 4.17508 5.10183C4.17098 5.14355 4.17602 5.18462 4.1882 5.22972C4.211 5.31415 4.2643 5.43 4.35294 5.61572L4.3532 5.61626C4.62686 6.18095 4.93962 6.6891 5.32561 7.20519L5.32598 7.20569L5.32598 7.20569L5.59615 7.56231L5.44617 7.71536C5.44613 7.7154 5.44609 7.71544 5.44605 7.71547C5.16822 7.99749 4.64976 8.4185 4.216 8.70769C4.08846 8.79201 3.98564 8.86465 3.90654 8.92994C3.82831 8.99451 3.76711 9.05682 3.72903 9.12179C3.6887 9.19062 3.67442 9.2625 3.6908 9.33792C3.70602 9.40806 3.74589 9.47185 3.79318 9.53183L3.8717 9.46991M6.01895 2.68334L9.52209 3.97851C9.47053 4.04726 9.39319 4.06444 8.97639 4.08163L8.98085 4.18153L8.98076 4.18153C8.98068 4.18154 8.9806 4.18154 8.98051 4.18155L8.56783 4.19997L8.44401 4.56414C8.44397 4.56428 8.44392 4.56442 8.44387 4.56456C8.16052 5.42304 7.46714 6.67516 6.89278 7.38441L6.89278 7.38441L6.8921 7.38523L6.74313 7.56524L6.84372 7.66848L6.84394 7.66871C7.0994 7.93255 7.71616 8.42648 8.16783 8.72474L8.1684 8.72513C8.36015 8.85366 8.47506 8.93326 8.54105 9.00112C8.57683 9.03791 8.60218 9.0749 8.6184 9.11798C8.63386 9.15904 8.63869 9.19993 8.64202 9.23768L8.64203 9.23781C8.65255 9.35882 8.62143 9.47118 8.54812 9.55431C8.47443 9.63789 8.3671 9.68163 8.24592 9.68163C8.19894 9.68163 8.14631 9.66575 8.09664 9.64613C8.04433 9.62546 7.98443 9.59614 7.91944 9.56045C7.78926 9.48898 7.6321 9.38832 7.46334 9.26975C7.12581 9.03261 6.73545 8.71929 6.41156 8.41284L6.18595 8.20381L5.97049 8.39316C5.43578 8.8718 5.19569 9.06405 4.74829 9.36378C4.49746 9.53382 4.31491 9.64088 4.17086 9.67422C4.09452 9.69189 4.0222 9.69071 3.95415 9.66281C3.8876 9.63553 3.83622 9.58717 3.79277 9.53131L3.8717 9.46991M6.01895 2.68334L6.02167 2.68266C6.10138 2.66274 6.1734 2.65051 6.2446 2.66289C6.31814 2.67568 6.37786 2.71224 6.43902 2.76156C6.49421 2.80482 6.54035 2.85012 6.56488 2.92625C6.58614 2.99221 6.5885 3.07517 6.5885 3.18358V3.3371M6.01895 2.68334L6.5885 3.3371M3.8717 9.46991C3.69553 9.24647 3.76428 9.12616 4.27131 8.79101L5.90413 8.31835C5.37131 8.7953 5.13499 8.98436 4.69241 9.28085C4.18538 9.6246 4.02209 9.66327 3.8717 9.46991ZM6.5885 3.3371H7.92366C8.61366 3.3371 8.97638 3.33813 9.17995 3.35016C9.28142 3.35616 9.35104 3.36521 9.40467 3.3811C9.46339 3.39849 9.49876 3.42289 9.5315 3.44807L6.5885 3.3371ZM5.07053 5.39647C4.79124 4.85507 4.68811 4.76483 4.47756 4.85077C4.40452 4.88085 4.32717 4.95819 4.29709 5.03124C4.24983 5.14725 4.26272 5.19452 4.44319 5.57265C4.71389 6.13124 5.02327 6.63397 5.40569 7.1453L5.07053 5.39647Z" fill="#191919" stroke="#191919" stroke-width="0.2"/>
<path d="M13.8533 3.25882L13.8532 3.25888C13.5003 3.5241 13.2991 3.67891 13.1851 3.78342C13.1278 3.83589 13.0869 3.88069 13.0595 3.92507C13.0302 3.97278 13.0191 4.01567 13.0146 4.05863M13.8533 3.25882L15.9019 4.58785C15.708 4.54344 15.4603 4.52595 15.0153 4.53451C15.0153 4.53451 15.0153 4.53451 15.0152 4.53451L14.6862 4.54127L14.7711 4.60273L14.7716 4.60304C14.8629 4.66989 14.9521 4.74452 15.0223 4.81083C15.0574 4.84395 15.0887 4.87591 15.1136 4.90451C15.1363 4.93053 15.1609 4.96183 15.174 4.9924C15.2334 5.13105 15.211 5.27491 15.1313 5.38284C15.0523 5.48992 14.9206 5.55718 14.7684 5.55718C14.7478 5.55718 14.7303 5.55149 14.7221 5.54864C14.7115 5.54498 14.7009 5.54034 14.6909 5.5356C14.6708 5.52605 14.6471 5.51302 14.6211 5.49783C14.5688 5.46726 14.5014 5.42426 14.4247 5.3733C14.2709 5.27117 14.0757 5.13415 13.8819 4.99348C13.6881 4.85279 13.4949 4.70773 13.345 4.58941C13.2702 4.53034 13.2054 4.47727 13.1565 4.4344C13.1321 4.41302 13.1108 4.39336 13.0938 4.37624C13.0796 4.36189 13.0616 4.34269 13.0497 4.32254C13.0268 4.28482 13.018 4.23477 13.0141 4.19662C13.0096 4.15323 13.0096 4.10435 13.0146 4.05863M13.8533 3.25882C14.0688 3.09718 14.2728 2.94928 14.4277 2.84155C14.5049 2.78779 14.5708 2.74347 14.6199 2.71233C14.6444 2.69687 14.666 2.68382 14.6835 2.67433C14.6921 2.66967 14.7013 2.66495 14.7103 2.66114L14.7109 2.6609C14.7161 2.65869 14.736 2.65015 14.7598 2.65015C14.8465 2.65015 14.934 2.68363 15.0047 2.72986C15.0752 2.77599 15.1407 2.8426 15.1741 2.92174L15.1742 2.92172M13.8533 3.25882L15.1742 2.92172M13.0146 4.05863C13.0147 4.0585 13.0147 4.05838 13.0147 4.05825L13.1141 4.06929L13.0146 4.059C13.0146 4.05888 13.0146 4.05875 13.0146 4.05863ZM14.7106 3.66959L15.1926 3.68575C15.8686 3.70728 16.0224 3.72462 16.3418 3.82807L16.3421 3.82819C17.2103 4.11312 17.8826 4.78559 18.1718 5.6533C18.231 5.83094 18.2628 5.93198 18.2803 6.15399C18.2971 6.36675 18.3015 6.6958 18.3099 7.32874L18.3102 7.34648L18.3102 7.34681C18.3166 7.98909 18.3199 8.32228 18.31 8.50843C18.3051 8.60138 18.2966 8.66638 18.28 8.71801C18.262 8.77404 18.2362 8.80864 18.2118 8.84006L18.2118 8.84007L18.2111 8.84086C18.0585 9.03309 17.7612 9.0512 17.5895 8.87946C17.5624 8.85239 17.536 8.82069 17.5176 8.76658C17.5013 8.71869 17.4926 8.65704 17.4868 8.57161C17.4752 8.39976 17.4742 8.09561 17.4742 7.52828C17.4742 6.61417 17.4565 6.28286 17.4123 6.08546C17.2362 5.3409 16.651 4.7598 15.9019 4.58786L14.7106 3.66959ZM14.7106 3.66959L14.7933 3.60837L14.7106 3.66959ZM15.1742 2.92172L15.175 2.92393M15.1742 2.92172L15.175 2.92393M15.175 2.92393C15.1969 2.97936 15.21 3.0368 15.2067 3.0972M15.175 2.92393L15.2067 3.0972M15.2067 3.0972C15.2032 3.15828 15.1834 3.21543 15.1496 3.27066M15.2067 3.0972L15.1496 3.27066M15.1496 3.27066C15.0852 3.37604 14.9652 3.48163 14.7935 3.60828L15.1496 3.27066Z" fill="#191919" stroke="#191919" stroke-width="0.2"/>
<path d="M10.7651 9.56922L10.7644 9.56933C10.4863 9.61568 10.1405 9.79713 9.953 9.99348M10.7651 9.56922L10.0246 10.0633M10.7651 9.56922C10.7857 9.56592 10.8255 9.56373 10.874 9.56183C10.9254 9.5598 10.9942 9.55789 11.078 9.55611C11.2457 9.55254 11.4751 9.54944 11.7495 9.54702C12.2983 9.54219 13.0281 9.54004 13.8061 9.54219L16.8805 9.5486M10.7651 9.56922L16.8805 9.5486M9.953 9.99348C9.95273 9.99376 9.95246 9.99404 9.9522 9.99432L10.0246 10.0633M9.953 9.99348C9.9533 9.99317 9.9536 9.99287 9.9539 9.99257L10.0246 10.0633M9.953 9.99348C9.86443 10.0825 9.74316 10.2734 9.67598 10.421L9.67618 10.4206L9.7668 10.4629C9.83125 10.3211 9.94727 10.1406 10.0246 10.0633M16.8805 9.5486C17.7077 9.52946 18.6284 9.525 19.2457 9.525C19.9264 9.525 20.3687 9.53355 20.6747 9.55919C20.9815 9.58489 21.1603 9.62833 21.31 9.70314L21.31 9.70312L21.3114 9.70386C21.5473 9.82656 21.8098 10.1049 21.9507 10.3728C21.9508 10.373 21.9509 10.3732 21.951 10.3734L22.0665 10.5873L22.0785 10.6095V10.6348V15.8125V20.9902V21.0135L22.0683 21.0343L21.948 21.2792L21.9479 21.2793C21.8003 21.5791 21.5386 21.8362 21.2299 21.979V21.979L21.2294 21.9793L21.0318 22.0695L21.012 22.0785H20.9902H15.8125H10.6348H10.6095L10.5873 22.0665L10.3732 21.9509C10.1001 21.8096 9.82616 21.5468 9.70362 21.3066C9.61048 21.1252 9.56799 20.9558 9.54706 20.2169C9.52606 19.4754 9.52715 18.1424 9.53359 15.6189L9.53359 15.6189L9.54648 10.7204L9.54654 10.6984L9.55587 10.6784L9.67576 10.4215L16.8805 9.5486ZM20.5598 10.3989C20.3524 10.3873 20.0271 10.3801 19.4995 10.3727L13.7376 10.3781L13.7372 10.3781L13.7125 10.3782C12.295 10.3846 11.5696 10.3879 11.18 10.4006C10.9831 10.4071 10.8778 10.4158 10.8139 10.4273C10.7568 10.4376 10.7368 10.449 10.7088 10.4663L10.7088 10.4664L10.7066 10.4676C10.5302 10.5705 10.4174 10.743 10.3904 10.9806C10.3879 11.0068 10.3849 11.1643 10.3824 11.4381C10.3799 11.7089 10.3779 12.0862 10.3765 12.5423C10.3738 13.4547 10.3738 14.6823 10.3781 16.0055L10.3781 16.0056C10.3846 18.1974 10.3889 19.4028 10.4001 20.0749C10.4058 20.4115 10.4131 20.6117 10.4231 20.7345C10.4335 20.8621 10.4461 20.8895 10.4501 20.8963L10.4502 20.8962L10.4521 20.8999C10.5321 21.0484 10.6636 21.1664 10.7867 21.2133C10.7885 21.2136 10.7926 21.2142 10.7997 21.2151C10.8141 21.2168 10.835 21.2185 10.8633 21.2203C10.9195 21.2238 11.0002 21.2271 11.1067 21.2301C11.3194 21.2361 11.6314 21.241 12.0477 21.2447C12.8803 21.2522 14.1281 21.2555 15.8297 21.2555H20.7561L20.923 21.172C20.9231 21.1719 20.9233 21.1719 20.9235 21.1718C20.9878 21.1386 21.0329 21.1068 21.069 21.0703C21.105 21.0339 21.1357 20.9889 21.1667 20.9251L21.1666 20.9251L21.168 20.9224L21.2555 20.7551V15.8297C21.2555 14.1281 21.2522 12.8803 21.2447 12.0477C21.241 11.6314 21.2361 11.3194 21.2301 11.1067C21.2271 11.0002 21.2238 10.9195 21.2203 10.8633C21.2185 10.835 21.2168 10.8141 21.2151 10.7997C21.2142 10.7926 21.2136 10.7885 21.2133 10.7867C21.1664 10.6636 21.0484 10.5321 20.8999 10.4521L20.8998 10.4521L20.8973 10.4507C20.8651 10.4321 20.803 10.4125 20.5598 10.3989Z" fill="#191919" stroke="#191919" stroke-width="0.2"/>
<path d="M17.4324 15.7867C18.498 18.6141 18.6055 18.9277 18.5625 19.0352C18.5152 19.1512 18.3648 19.25 18.2402 19.25C18.0941 19.25 17.9609 19.0395 17.7461 18.4594C17.6258 18.1285 17.5055 17.8234 17.484 17.7805L17.4324 15.7867ZM17.4324 15.7867C16.6418 13.6941 16.2164 12.6156 16.1434 12.534L17.4324 15.7867ZM14.1506 15.6869L14.1507 15.6866C14.5954 14.5201 14.8986 13.7351 15.101 13.2325C15.2021 12.9813 15.2785 12.7994 15.335 12.6753C15.3633 12.6133 15.3872 12.5643 15.4073 12.5276C15.4249 12.4954 15.4461 12.4601 15.4708 12.438C15.5758 12.3441 15.7189 12.3055 15.8523 12.3105C15.9853 12.3156 16.1239 12.3647 16.2171 12.4664L16.2171 12.4664L16.2179 12.4673C16.2301 12.4809 16.2404 12.498 16.2481 12.5116C16.2569 12.527 16.2666 12.5459 16.2772 12.5676C16.2984 12.611 16.3248 12.6697 16.3563 12.7429C16.4194 12.8895 16.5045 13.0985 16.6118 13.3694C16.8264 13.9116 17.1306 14.705 17.526 15.7514L17.526 15.7515C18.0586 17.1646 18.3524 17.9513 18.5076 18.3981C18.585 18.6208 18.6293 18.7628 18.6513 18.8572C18.6724 18.9477 18.6785 19.0144 18.6553 19.0723L18.6551 19.0729C18.6219 19.1543 18.5566 19.2224 18.4857 19.2694C18.4147 19.3165 18.327 19.35 18.2402 19.35C18.1116 19.35 18.0157 19.2554 17.9342 19.1253C17.8499 18.9908 17.7599 18.7847 17.6523 18.4941L17.6521 18.4935C17.5385 18.1811 17.4275 17.899 17.3991 17.835C17.3981 17.8347 17.3969 17.8343 17.3956 17.834C17.369 17.8266 17.3154 17.8194 17.2044 17.8143C16.986 17.8042 16.5809 17.8031 15.8125 17.8031H14.2565L14.1183 18.1559C13.9181 18.6821 13.8041 18.9743 13.7125 19.1329C13.666 19.2136 13.6181 19.2731 13.5563 19.3091C13.4928 19.346 13.4285 19.35 13.3719 19.35C13.2677 19.35 13.1668 19.2912 13.0965 19.224C13.0268 19.1574 12.9625 19.0589 12.9625 18.9535C12.9625 18.9397 12.9653 18.9269 12.9663 18.9222L12.9664 18.922C12.968 18.9148 12.97 18.9068 12.9723 18.8986C12.9769 18.8822 12.9834 18.861 12.9915 18.8359C13.0077 18.7855 13.0314 18.7158 13.0615 18.6296C13.1218 18.4569 13.2089 18.2152 13.3161 17.9223C13.5306 17.3364 13.8261 16.5443 14.1506 15.6869ZM14.5799 16.9428C14.5974 16.9445 14.6184 16.9461 14.6435 16.9475C14.8209 16.9575 15.1662 16.9586 15.8254 16.9586H17.0773L16.4452 15.2808C16.4452 15.2807 16.4451 15.2807 16.4451 15.2807C16.2561 14.7823 16.0832 14.327 15.9565 13.9957C15.9065 13.8651 15.8638 13.7539 15.8301 13.6671C15.724 13.9438 15.4863 14.5656 15.2184 15.2681L15.2184 15.2682C15.0422 15.7279 14.879 16.1554 14.7582 16.4727C14.6977 16.6314 14.648 16.7625 14.6125 16.8564L14.5799 16.9428ZM14.5515 17.0193C14.5506 17.0213 14.551 17.0209 14.5517 17.0186L14.5515 17.0193Z" fill="#191919" stroke="#191919" stroke-width="0.2"/>
<path d="M3.78826 13.1601L3.78826 13.1601L3.78889 13.1593C3.94154 12.967 4.23883 12.9489 4.41056 13.1207C4.43762 13.1477 4.46395 13.1794 4.48237 13.2334C4.49868 13.2813 4.50746 13.3428 4.51321 13.428C4.52478 13.5993 4.52579 13.9024 4.52579 14.4675C4.52579 15.3859 4.54349 15.7172 4.5877 15.9146C4.76383 16.6592 5.34902 17.2403 6.09813 17.4123C6.29199 17.4567 6.53974 17.4742 6.98481 17.4656L7.31382 17.4589L7.22888 17.3974L7.22846 17.3971C7.13711 17.3302 7.04795 17.2556 6.9777 17.1893C6.94262 17.1562 6.91128 17.1242 6.88639 17.0956C6.86374 17.0696 6.83917 17.0383 6.82606 17.0077C6.76664 16.8691 6.789 16.7252 6.86868 16.6173C6.94773 16.5102 7.07938 16.4429 7.23165 16.4429C7.25278 16.4429 7.27069 16.4491 7.27815 16.4518C7.28832 16.4554 7.29861 16.46 7.30822 16.4647C7.3276 16.4741 7.35074 16.4869 7.37616 16.5019C7.42733 16.532 7.49384 16.5744 7.56975 16.6247C7.7219 16.7256 7.91598 16.8609 8.10916 17C8.30235 17.139 8.49557 17.2824 8.64597 17.3994C8.72107 17.4578 8.78627 17.5103 8.8357 17.5526C8.86036 17.5738 8.88194 17.5931 8.89918 17.6099C8.91446 17.6247 8.93263 17.6435 8.94465 17.6625L8.94479 17.6627C8.9987 17.7483 9.00671 17.8546 8.98843 17.9493C8.96994 18.045 8.9224 18.1417 8.84789 18.2134L8.84791 18.2134L8.84635 18.2149C8.75742 18.2969 8.41429 18.5567 8.08642 18.7982C7.92094 18.9201 7.75703 19.039 7.62731 19.1311C7.56249 19.1771 7.50586 19.2167 7.46169 19.2466C7.42014 19.2748 7.38346 19.2988 7.36231 19.3093L7.36234 19.3094L7.35875 19.311C7.25755 19.3567 7.1423 19.3399 7.05043 19.2979C6.95759 19.2555 6.87048 19.1795 6.82649 19.0798L6.82642 19.0798L6.82498 19.0762C6.80313 19.0209 6.78997 18.9637 6.79336 18.9035C6.7968 18.8425 6.81677 18.7857 6.85052 18.7308C6.91479 18.6263 7.03468 18.5207 7.20603 18.3922L7.20602 18.3922L7.20656 18.3918L7.28944 18.3305L6.80739 18.3144C6.80736 18.3144 6.80733 18.3144 6.80729 18.3144C6.12727 18.2928 5.97726 18.2755 5.65361 18.1676C5.23901 18.0338 4.72137 17.7071 4.45964 17.4228L4.45964 17.4228L4.45878 17.4218C4.18799 17.12 3.95307 16.7214 3.82819 16.3425C3.76894 16.167 3.73725 16.0659 3.71971 15.844C3.7029 15.6314 3.69852 15.3029 3.69012 14.6733L3.68986 14.6536L3.68986 14.6533C3.68344 14.011 3.68011 13.6778 3.68999 13.4917C3.69493 13.3987 3.70344 13.3337 3.72002 13.2821C3.73802 13.2261 3.76383 13.1915 3.78826 13.1601ZM8.77853 18.1414C8.89454 18.0297 8.93321 17.832 8.86017 17.716L7.26603 18.4722C6.92228 18.73 6.84493 18.8547 6.91798 19.0394C6.98243 19.1855 7.18439 19.28 7.31759 19.2199C7.42931 19.164 8.61095 18.2961 8.77853 18.1414Z" fill="#191919" stroke="#191919" stroke-width="0.2"/>
</g>
<path d="M33.494 17.5V4.81H38.858C40.214 4.81 41.264 5.134 42.008 5.782C42.752 6.418 43.124 7.312 43.124 8.464C43.124 9.22 42.956 9.868 42.62 10.408C42.284 10.948 41.81 11.362 41.198 11.65C40.586 11.926 39.866 12.064 39.038 12.064L39.326 11.776H39.812C40.304 11.776 40.742 11.902 41.126 12.154C41.522 12.406 41.846 12.808 42.098 13.36L43.916 17.5H41.864L40.064 13.342C39.884 12.85 39.602 12.532 39.218 12.388C38.846 12.244 38.384 12.172 37.832 12.172H35.366V17.5H33.494ZM35.366 10.75H38.552C39.452 10.75 40.13 10.558 40.586 10.174C41.054 9.79 41.288 9.238 41.288 8.518C41.288 7.786 41.054 7.234 40.586 6.862C40.13 6.49 39.452 6.304 38.552 6.304H35.366V10.75ZM51.1928 17.662C49.4288 17.662 48.1148 17.218 47.2508 16.33C46.3988 15.442 45.9728 14.128 45.9728 12.388V4.81H47.8448V12.352C47.8448 13.576 48.1088 14.5 48.6368 15.124C49.1768 15.736 50.0288 16.042 51.1928 16.042C52.2968 16.042 53.1308 15.736 53.6948 15.124C54.2588 14.5 54.5408 13.576 54.5408 12.352V4.81H56.3768V12.388C56.3768 14.128 55.9388 15.442 55.0628 16.33C54.1868 17.218 52.8968 17.662 51.1928 17.662Z" fill="#191919"/>
<defs>
<clipPath id="clip0_590_161">
<rect width="22" height="22" fill="white"/>
</clipPath>
</defs>
</svg>
